Coordinates
version=1
nRows=54
nColumns=12
inDegrees=yes

Units are S.I. units (second, meters, Newtons, ...)
Angles are in degrees

endheader
time	SC_y	SC_z	SC_x	AC_y	AC_z	AC_x	GH_y	GH_z	GH_yy	EL_x	PS_y
       0.0              -30.73          21.26          21.27          52.05         -1.336           -2.1         -109.9         -3.858          78.59          89.82           31.3
 0.0004179              -30.74          21.26          21.27          52.04         -1.339         -2.098         -109.8         -3.855           78.6          89.81          31.31
 0.0008357              -30.74          21.26          21.27          52.04         -1.342         -2.096         -109.8         -3.852          78.61           89.8          31.33
  0.001254              -30.75          21.26          21.27          52.04         -1.345         -2.093         -109.8         -3.848          78.62          89.78          31.34
  0.001671              -30.75          21.26          21.27          52.04         -1.348         -2.091         -109.7         -3.845          78.63          89.77          31.35
  0.002089              -30.76          21.25          21.27          52.03         -1.351         -2.088         -109.7         -3.841          78.64          89.75          31.37
  0.002507              -30.76          21.25          21.27          52.03         -1.355         -2.085         -109.7         -3.837          78.66          89.74          31.38
  0.002925              -30.77          21.25          21.27          52.03         -1.359         -2.082         -109.6         -3.832          78.67          89.72           31.4
  0.003343              -30.78          21.25          21.27          52.03         -1.363         -2.079         -109.6         -3.828          78.68           89.7          31.41
  0.003761              -30.78          21.24          21.27          52.02         -1.367         -2.075         -109.5         -3.823           78.7          89.68          31.43
  0.004179              -30.79          21.24          21.27          52.02         -1.372         -2.071         -109.5         -3.817          78.71          89.66          31.45
  0.004596               -30.8          21.24          21.27          52.01         -1.377         -2.067         -109.4         -3.811          78.73          89.64          31.47
  0.005014              -30.81          21.23          21.27          52.01         -1.382         -2.063         -109.4         -3.805          78.75          89.61           31.5
  0.005432              -30.81          21.23          21.27          52.01         -1.388         -2.058         -109.3         -3.798          78.77          89.59          31.52
   0.00585              -30.82          21.22          21.27           52.0         -1.394         -2.053         -109.2         -3.791          78.79          89.56          31.55
  0.006268              -30.84          21.22          21.27           52.0         -1.401         -2.047         -109.1         -3.783          78.82          89.53          31.58
  0.006686              -30.85          21.21          21.27          51.99         -1.409         -2.041         -109.1         -3.775          78.84           89.5          31.61
  0.007104              -30.86          21.21          21.27          51.98         -1.417         -2.034         -109.0         -3.765          78.87          89.46          31.64
  0.007521              -30.87           21.2          21.27          51.98         -1.426         -2.027         -108.9         -3.755           78.9          89.42          31.68
  0.007939              -30.89           21.2          21.27          51.97         -1.436         -2.019         -108.8         -3.744          78.93          89.37          31.72
  0.008357              -30.91          21.19          21.27          51.96         -1.446          -2.01         -108.6         -3.731          78.97          89.33          31.77
  0.008775              -30.92          21.18          21.27          51.95         -1.458           -2.0         -108.5         -3.718          79.01          89.27          31.82
  0.009193              -30.94          21.17          21.26          51.94         -1.471          -1.99         -108.4         -3.703          79.06          89.22          31.87
  0.009611              -30.97          21.16          21.26          51.93         -1.486         -1.978         -108.2         -3.686          79.11          89.15          31.93
   0.01003              -30.99          21.15          21.26          51.92         -1.502         -1.965         -108.0         -3.668          79.16          89.08           32.0
   0.01045              -31.02          21.14          21.26           51.9          -1.52          -1.95         -107.8         -3.647          79.22           89.0          32.08
   0.01086              -31.05          21.12          21.26          51.89          -1.54         -1.933         -107.6         -3.624          79.29          88.91          32.16
   0.01128              -31.09          21.11          21.26          51.87         -1.562         -1.915         -107.4         -3.598          79.37          88.81          32.26
    0.0117              -31.13          21.09          21.26          51.85         -1.588         -1.894         -107.1         -3.569          79.45          88.69          32.37
   0.01212              -31.17          21.07          21.25          51.83         -1.617          -1.87         -106.7         -3.536          79.55          88.56          32.49
   0.01254              -31.22          21.05          21.25           51.8          -1.65         -1.843         -106.4         -3.498          79.67          88.41          32.63
   0.01295              -31.28          21.02          21.25          51.77         -1.688         -1.812         -106.0         -3.454           79.8          88.24          32.79
   0.01337              -31.35          20.99          21.25          51.74         -1.732         -1.776         -105.5         -3.404          79.95          88.05          32.97
   0.01379              -31.43          20.95          21.24           51.7         -1.783         -1.734         -104.9         -3.346          80.12          87.82          33.19
   0.01421              -31.52          20.91          21.24          51.66         -1.842         -1.685         -104.2         -3.277          80.33          87.55          33.44
   0.01463              -31.63          20.86          21.23           51.6         -1.912         -1.627         -103.5         -3.197          80.57          87.23          33.74
   0.01504              -31.76           20.8          21.23          51.54         -1.996         -1.559         -102.5         -3.101          80.85          86.86          34.09
   0.01546              -31.92          20.73          21.22          51.46         -2.096         -1.477         -101.4         -2.986          81.19          86.41          34.51
   0.01588              -32.11          20.65          21.21          51.37         -2.217         -1.377         -100.1         -2.847          81.61          85.87          35.03
    0.0163              -32.34          20.55           21.2          51.25         -2.365         -1.256         -98.43         -2.677          82.11           85.2          35.65
   0.01671              -32.62          20.42          21.19          51.11         -2.547         -1.106          -96.4         -2.468          82.74          84.39          36.42
   0.01713              -32.98          20.26          21.17          50.94         -2.775        -0.9192         -93.87         -2.207          83.52          83.36          37.38
   0.01755              -33.43          20.06          21.15          50.71         -3.061        -0.6838         -90.68         -1.877           84.5          82.08           38.6
   0.01797               -34.0          19.81          21.13          50.43         -3.425        -0.3846         -86.63         -1.459          85.75          80.44          40.14
   0.01839              -34.72          19.48           21.1          50.07         -3.892      -0.001565         -81.44        -0.9237          87.34          78.35          42.11
    0.0188              -35.66          19.06          21.06          49.61          -4.49         0.4899         -74.78        -0.2367          89.39          75.66          44.64
   0.01922              -36.85          18.53           21.0          49.02         -5.255          1.118         -66.28          0.641          92.01          72.23          47.87
   0.01964              -38.35          17.86          20.94          48.28         -6.216          1.907         -55.59          1.745           95.3          67.91          51.94
   0.02006              -40.18          17.04          20.86          47.38         -7.387          2.869         -42.56          3.089          99.31          62.66          56.89
   0.02048               -42.3          16.09          20.76          46.33         -8.744          3.984         -27.46          4.648          104.0          56.56          62.63
   0.02089              -44.59          15.07          20.66          45.19         -10.21          5.192         -11.11          6.336          109.0          49.96          68.85
   0.02131              -46.89          14.04          20.56          44.06         -11.68          6.399          5.245          8.024          114.0          43.36          75.07
   0.02173              -49.01          13.09          20.46          43.01         -13.04          7.514          20.35          9.583          118.7          37.27          80.81
   0.02215              -50.84          12.27          20.38          42.11         -14.21          8.476          33.38          10.93          122.7          32.01          85.76
